<?xml version="1.0" encoding="utf-8"?>
<!-- Generator: Adobe Illustrator 17.0.0, SVG Export Plug-In . SVG Version: 6.00 Build 0)  -->
<!DOCTYPE svg PUBLIC "-//W3C//DTD SVG 1.1//EN" "http://www.w3.org/Graphics/SVG/1.1/DTD/svg11.dtd">
<svg version="1.1" id="Layer_1" xmlns="http://www.w3.org/2000/svg" xmlns:xlink="http://www.w3.org/1999/xlink" x="0px" y="0px"
	 width="306.871px" height="60px" viewBox="36.832 0 306.871 60" enable-background="new 36.832 0 306.871 60" xml:space="preserve"
	>
<g>
	<path fill="#DAE8FF" d="M336.171,0.5h-27.483h-10.924h-38.59c-4.143,0-7.47,3.296-7.47,7.439V18.5h28v3h-28v3h38.494l11.451,10.892
		l-2.397,2.482L288.794,27.5h-7.008l6.696,6.332l-2.397,2.579l-9.093-8.911h-25.288v2h24.179l14.355,15h-16.882l-11.033-11h-10.619
		v2h7.03l3.193,2.899l-2.369,2.84l-2.204-1.739h-5.65v12.697c0,4.143,3.327,7.303,7.47,7.303h42.168h7.345h27.483
		c4.143,0,7.533-3.159,7.533-7.303V7.939C343.704,3.796,340.314,0.5,336.171,0.5z M329.11,50.879c-3.12,0-5.65-2.53-5.65-5.65
		c0-3.12,2.53-5.65,5.65-5.65s5.65,2.53,5.65,5.65C334.76,48.35,332.231,50.879,329.11,50.879z"/>
	<polygon fill="#DAE8FF" points="282.037,40.5 274.482,33.5 267.14,33.5 274.749,40.5 	"/>
</g>
<g>
	<polygon fill="#FFFFFF" points="50.219,22.213 53.615,25.61 57.047,22.16 53.579,18.71 50.219,22.07 46.822,18.675 43.39,22.124 
		46.858,25.574 	"/>
	<path fill="#FFFFFF" d="M98.841,26.53c-0.679-0.244-1.338-0.513-1.975-0.804c-0.638-0.292-1.278-0.587-1.922-0.885
		c-0.667-0.309-1.34-0.617-2.02-0.921c-0.679-0.304-1.367-0.575-2.064-0.814c-0.697-0.238-1.397-0.432-2.1-0.581
		c-0.703-0.149-1.406-0.223-2.11-0.223c-0.953,0-1.862,0.179-2.726,0.536c-0.864,0.358-1.668,0.831-2.413,1.421
		c-0.745,0.589-1.427,1.267-2.047,2.029c-0.62,0.763-1.156,1.544-1.609,2.341l4.129,2.663c0.072-0.131,0.253-0.378,0.545-0.742
		c0.292-0.363,0.652-0.736,1.081-1.117s0.906-0.721,1.43-1.018c0.524-0.298,1.06-0.447,1.609-0.447c0.799,0,1.603,0.11,2.413,0.331
		c0.81,0.221,1.624,0.486,2.44,0.795c0.816,0.31,1.632,0.631,2.449,0.965c0.816,0.334,1.63,0.614,2.44,0.84
		c-1.216,0.56-2.452,1.1-3.709,1.618c-1.258,0.518-2.589,0.974-3.995,1.367c-1.406,0.393-2.917,0.365-4.531,0.597
		c-1.615,0.232-3.387,0.007-5.318,0.007h-3.432c-0.009,0-0.018,0.343-0.027,0.343c-0.009,0-0.018,0.17-0.027,0.17
		c-0.775,0-1.466-0.013-2.074-0.21c-0.608-0.196-1.108-0.422-1.502-0.762c-0.393-0.339-0.671-0.721-0.831-1.185
		c-0.161-0.464-0.188-0.961-0.08-1.508l0.733-3.784l-5.005-1.267c-0.143,0.608-0.289,1.211-0.438,1.807
		c-0.149,0.596-0.337,1.166-0.563,1.707c-0.227,0.543-0.501,1.058-0.822,1.546c-0.322,0.489-0.732,0.936-1.233,1.34
		c-0.549,0.453-1.207,0.838-1.975,1.153c-0.768,0.316-1.626,0.572-2.574,0.768c-0.947,0.196-1.981-0.002-3.101,0.088
		s-17.968-0.207-19.219-0.207c-0.036,0,0.165,0,0.165,0v6.382c0,0-0.065,0.002-0.028,0.003c3.206,0,21.602-0.345,24.004-1.037
		c2.401-0.691,4.413-1.758,6.106-3.199c0.858,1.502,1.952,2.527,3.317,3.171c1.231,0.58,2.7,0.62,4.42,0.669
		c0.246,0.067,0.491-0.135,0.755-0.135h0.143h3.289c1.573,0,3.05,0.141,4.433-0.056c1.382-0.196,2.693-0.339,3.932-0.667
		c1.239-0.328,2.422-0.656,3.548-1.102c1.126-0.447,2.223-0.888,3.289-1.382c1.066-0.494,2.112-0.992,3.137-1.523
		c1.025-0.53,2.055-1.039,3.092-1.539l2.539-1.212l0.447-5.486c-0.81-0.012-1.579-0.094-2.306-0.249
		C100.223,26.974,99.52,26.775,98.841,26.53z"/>
	
		<rect x="83.093" y="13.795" transform="matrix(-0.7071 -0.7071 0.7071 -0.7071 134.9006 89.08)" fill="#FFFFFF" width="5.612" height="5.612"/>
	<path fill="#FFFFFF" d="M135.467,36.504c0.429-0.923,0.644-1.94,0.644-3.048c0-0.322-0.018-0.658-0.054-1.01
		c-0.036-0.351-0.101-0.7-0.197-1.045c-0.31-1.203-0.816-2.407-1.519-3.611c-0.703-1.203-1.537-2.368-2.503-3.494
		c-0.965-1.126-2.017-2.19-3.155-3.191c-1.138-1.001-2.285-1.906-3.441-2.717l-3.164,4.701c0.584,0.37,1.222,0.814,1.912,1.332
		c0.691,0.518,1.382,1.079,2.074,1.681c0.691,0.602,1.361,1.227,2.011,1.877s1.222,1.294,1.716,1.931
		c0.494,0.638,0.887,1.248,1.18,1.832c0.292,0.584,0.431,1.108,0.42,1.573c-0.012,0.274-0.101,0.509-0.268,0.706
		s-0.385,0.366-0.652,0.509c-0.268,0.143-0.563,0.259-0.885,0.349c-0.322,0.089-0.641,0.161-0.957,0.215
		c-0.316,0.054-0.617,0.089-0.903,0.107c-0.286,0.018-0.518,0.027-0.697,0.027c-0.489,0-1.067-0.084-1.734-0.25
		c-0.667-0.166-1.355-0.385-2.064-0.652c-0.709-0.268-1.401-0.563-2.074-0.885s-1.26-0.644-1.761-0.965l-2.341,5.381
		c0.679,0.417,1.415,0.817,2.207,1.197c0.793,0.381,1.609,0.715,2.449,1.001c0.84,0.286,1.692,0.515,2.556,0.688
		c0.864,0.172,1.707,0.259,2.529,0.259c0.095,0,0.191,0.003,0.286,0.009c0.095,0.006,0.191,0.009,0.286,0.009
		c1.287,0,2.467-0.185,3.539-0.554c1.073-0.37,1.993-0.891,2.762-1.564C134.439,38.227,135.038,37.428,135.467,36.504z"/>
	<path fill="#FFFFFF" d="M180.367,40.017c0.072-1.001,0.125-2.025,0.161-3.075c0.036-1.049,0.063-2.085,0.08-3.111
		s0.029-2.013,0.036-2.968c0.006-0.953,0.009-1.841,0.009-2.663c0-0.906-0.015-1.996-0.044-3.271
		c-0.03-1.275-0.087-2.655-0.17-4.138c-0.084-1.483-0.206-3.035-0.366-4.657c-0.161-1.62-0.047-1.43-0.309-3.027l-5.849-0.172
		c0.095,0.584,0.185,1.343,0.268,1.885c0.084,0.543,0.161,1.124,0.232,1.743c0.072,0.62,0.337,3.658,0.402,4.647
		c0.065,0.989,0.086,18.685,0.027,19.662L180.367,40.017z"/>
	<path fill="#FFFFFF" d="M113.288,20.793c-0.084-1.483-0.206-3.035-0.366-4.657c-0.161-1.62-0.047-1.43-0.309-3.027l-5.849-0.172
		c0.095,0.584,0.185,1.343,0.268,1.885c0.084,0.543,0.161,1.124,0.232,1.743c0.072,0.62,0.337,3.658,0.402,4.647
		c0.065,0.989,0.086,18.685,0.027,19.662l5.524-0.858c0.072-1.001,0.125-2.025,0.161-3.075c0.036-1.049,0.063-2.085,0.08-3.111
		c0.018-1.025,0.029-2.013,0.036-2.968c0.006-0.953,0.009-1.841,0.009-2.663c0-0.906-0.015-1.996-0.044-3.271
		C113.428,23.656,113.371,22.276,113.288,20.793z"/>
	
		<rect x="209.25" y="9.54" transform="matrix(-0.7071 -0.7071 0.7071 -0.7071 353.272 171.0225)" fill="#FFFFFF" width="5.612" height="5.612"/>
	<path fill="#FFFFFF" d="M220.985,27.96c-0.161-0.9-0.387-1.767-0.679-2.6c-0.292-0.834-0.644-1.62-1.054-2.36
		c-0.411-0.738-0.873-1.401-1.386-1.984c-0.715-0.751-1.513-1.346-2.396-1.788c-0.882-0.441-1.776-0.661-2.682-0.661
		c-0.894,0-1.746,0.212-2.556,0.635c-0.81,0.423-1.538,1.064-2.181,1.922l0.018-0.018c-1.073,1.323-1.788,2.997-2.145,5.023
		c-0.072,0.465-0.107,0.965-0.107,1.502c0,1.001,0.275,1.841,0.555,2.52c0.28,0.679,1.038,1.222,1.038,1.626v-0.018
		c0.836,0.381,0.595,0.718,1.161,1.01c0.566,0.292,1.181,0.522,1.979,0.688c0.799,0.167,1.67,0.265,2.683,0.295
		c1.013,0.03,2.104-0.021,3.308-0.152c-0.322,0.215-0.774,0.402-1.34,0.564c-0.566,0.161-1.202,0.301-1.899,0.42
		c-0.697,0.12-1.432,0.215-2.201,0.286c-0.768,0.072-1.523,0.131-2.263,0.179s-1.433-0.261-2.083-0.243s-1.196-0.314-1.636-0.314
		h-8.202h-0.089c-0.453,0-0.882,0.225-1.287-0.007c-0.406-0.232-0.808-0.464-1.207-1.036c-0.4-0.572-0.808-1.249-1.224-2.202
		c-0.417-0.953-0.864-2.102-1.34-3.533l-5.166,2.274c0.381,0.858,0.727,1.658,1.037,2.379c0.31,0.721,0.581,1.415,0.814,2.07
		c0.232,0.656,0.459,1.302,0.615,1.933c0.151,0.614,0.194,1.258,0.376,1.927c-0.007-0.003-0.013,0.005-0.009,0.023
		c0.006,0.036-0.008,0.089-0.008,0.161s-0.006,0.143,0.001,0.215c0.006,0.072,0.005,0.125,0.005,0.161
		c0,0.703-0.145,1.397-0.431,2.082c-0.286,0.685-0.681,1.355-1.181,2.011c-0.501,0.656-1.088,1.289-1.761,1.904
		c-0.673,0.614-1.401,1.203-2.181,1.769c-0.781,0.566-1.6,1.102-2.458,1.609c-0.858,0.506-1.71,0.974-2.556,1.403l3.271,4.522
		c1.537-0.774,2.985-1.651,4.344-2.627c1.359-0.977,2.568-2.047,3.629-3.208c1.06-1.161,1.951-2.407,2.672-3.736
		c0.721-1.329,1.212-2.733,1.475-4.21c0.548,0.227,1.06,0.358,1.537,0.393c0.316,0.023,0.58-0.201,0.803-0.192
		c0.049,0.003,0.096-0.232,0.145-0.232h8.345h0.072h0.232c1.239,0,2.469,0.179,3.691,0.096c1.222-0.084,2.392-0.119,3.513-0.345
		s2.169-0.477,3.146-0.87c0.977-0.393,1.844-0.875,2.6-1.508c0.757-0.631,1.379-1.382,1.868-2.282
		c0.488-0.9,0.804-1.962,0.947-3.201c0.023-0.238,0.042-0.487,0.053-0.756c0.012-0.268,0.018-0.537,0.018-0.811
		C221.226,29.761,221.146,28.86,220.985,27.96z M215.319,29.041c-0.304,0.012-0.641,0.012-1.01,0
		c-0.37-0.012-0.757-0.038-1.162-0.08c-0.406-0.042-0.783-0.095-1.135-0.161c-0.351-0.065-0.656-0.149-0.911-0.25
		c-0.257-0.101-0.426-0.223-0.509-0.366c-0.155-0.262-0.232-0.56-0.232-0.894c0-0.381,0.074-0.757,0.223-1.126
		c0.149-0.37,0.339-0.697,0.572-0.983c0.232-0.286,0.488-0.515,0.768-0.688c0.28-0.172,0.557-0.253,0.831-0.242
		c0.465,0.024,0.876,0.185,1.233,0.482c0.358,0.298,0.667,0.673,0.93,1.126c0.262,0.453,0.48,0.953,0.652,1.502
		s0.313,1.09,0.42,1.626C215.845,29.012,215.622,29.03,215.319,29.041z"/>
	<path fill="#FFFFFF" d="M151.56,34.835c-0.026-0.001-0.052-0.345-0.078-0.345h-0.089c-0.453,0-0.882,0.225-1.287-0.007
		c-0.406-0.232-0.808-0.464-1.207-1.036c-0.4-0.572-0.808-1.249-1.224-2.202c-0.417-0.953-0.864-2.102-1.34-3.533l-5.166,2.274
		c0.381,0.858,0.727,1.658,1.037,2.379c0.31,0.721,0.581,1.415,0.814,2.07c0.232,0.656,0.467,1.302,0.623,1.933
		c0.151,0.615,0.202,1.26,0.385,1.932c-0.011-0.008-0.023-0.003-0.019,0.018c0.006,0.036-0.012,0.089-0.012,0.161
		s-0.008,0.143-0.002,0.215c0.006,0.072,0.003,0.125,0.003,0.161c0,0.703-0.145,1.397-0.431,2.082
		c-0.286,0.685-0.681,1.355-1.182,2.011c-0.501,0.656-1.088,1.289-1.761,1.904c-0.673,0.614-1.401,1.203-2.181,1.769
		c-0.781,0.566-1.6,1.102-2.458,1.609c-0.858,0.506-1.71,0.974-2.556,1.403l3.271,4.522c1.537-0.774,2.985-1.651,4.344-2.627
		c1.359-0.977,2.568-2.047,3.629-3.208c1.06-1.161,1.951-2.407,2.672-3.736c0.721-1.329,1.212-2.733,1.475-4.21
		c0.548,0.227,1.048,0.358,1.524,0.393c0.449,0.033,1.045,0.054,1.045,0.055v-0.479c0,0,0.037,0,0.051,0
		c0.008,0,0.018,0.239,0.026,0.239c0.004,0-0.147,0.119-0.143,0.119c1.039-0.005,15.118,0.048,15.118,0.044v-5.749
		c0,0.043-14.993,0.008-14.993,0.008C151.433,35.005,151.574,34.835,151.56,34.835z"/>
	
		<rect x="156.356" y="49.4" transform="matrix(0.7071 0.7071 -0.7071 0.7071 82.9856 -97.0194)" fill="#FFFFFF" width="4.499" height="4.525"/>
	<polygon fill="#FFFFFF" points="161.757,42.852 158.597,46.224 155.236,42.969 151.768,46.471 155.2,49.947 158.597,46.564 
		161.957,49.931 165.425,46.274 162.226,42.852 	"/>
</g>
</svg>
